<svg width="64" height="64" viewBox="0 0 64 64" fill="none" xmlns="http://www.w3.org/2000/svg">
<mask id="mask0" mask-type="alpha" maskUnits="userSpaceOnUse" x="0" y="0" width="64" height="64">
<path d="M48.4114 12.3171L48.4004 12.301C48.0114 11.7306 47.2338 11.5836 46.6634 11.9724C46.093 12.3613 45.9459 13.139 46.3348 13.7094C46.3355 13.7106 46.3419 13.72 46.3429 13.7214L47.3785 13.0213L46.3458 13.7255C46.5878 14.0804 46.9803 14.2714 47.3797 14.2714C47.6222 14.2714 47.8673 14.201 48.0828 14.0541C48.6532 13.6653 48.8003 12.8875 48.4114 12.3171Z" fill="#7854FE"/>
<path d="M59.3004 25.8796C59.3361 25.5545 59.3541 25.2285 59.3541 24.9036C59.3541 19.9463 55.3187 15.913 50.3587 15.913C50.0511 15.913 49.7299 15.9305 49.4039 15.9649C48.7172 16.0373 48.2195 16.6525 48.2919 17.339C48.3643 18.0255 48.9799 18.522 49.6661 18.451C49.9088 18.4254 50.1353 18.4129 50.3589 18.4129C53.9405 18.4129 56.8543 21.3245 56.8543 24.9035C56.8543 25.3791 56.8005 25.8596 56.6944 26.3318C56.5604 26.9284 56.8776 27.5344 57.4444 27.7642C59.9081 28.7631 61.5001 31.1244 61.5001 33.7796C61.5001 37.3585 58.5863 40.2701 55.0047 40.2701H53.2445V32.625H54.125C54.8154 32.625 55.375 32.0653 55.375 31.375C55.375 30.6847 54.8154 30.125 54.125 30.125H9.86362C9.17325 30.125 8.61362 30.6847 8.61362 31.375C8.61362 32.0653 9.17325 32.625 9.86362 32.625H10.7444V40.1802C6.05513 39.5414 2.5 35.5456 2.5 30.7185C2.5 25.4516 6.788 21.1667 12.0586 21.1667C12.2245 21.1667 12.4068 21.1726 12.6159 21.1846C13.235 21.2209 13.7866 20.7965 13.9119 20.189C15.6209 11.8949 23.0177 5.875 31.5 5.875L31.5585 5.87512C36.0526 5.88937 40.3481 7.57188 43.6538 10.6126C44.1618 11.08 44.9525 11.0469 45.42 10.539C45.8874 10.0309 45.8544 9.24 45.3462 8.77275C41.58 5.30825 36.6862 3.39125 31.5697 3.375H31.5C26.7635 3.375 22.1455 5.03125 18.4965 8.03875C15.1665 10.7834 12.7793 14.5293 11.6993 18.672C5.21563 18.8625 0 24.1933 0 30.7185C0 36.9258 4.65925 42.0441 10.7444 42.6989V59.375C10.7444 60.0653 11.304 60.625 11.9944 60.625H18.875C19.5654 60.625 20.125 60.0653 20.125 59.375C20.125 58.6847 19.5654 58.125 18.875 58.125H13.2444V32.625H50.7444V58.125H28.625C27.9346 58.125 27.375 58.6847 27.375 59.375C27.375 60.0653 27.9346 60.625 28.625 60.625H51.9944C52.6847 60.625 53.2444 60.0653 53.2444 59.375V42.7702H55.0046C59.9647 42.7702 64 38.7371 64 33.7798C64 30.4425 62.185 27.4406 59.3004 25.8796Z" fill="#7854FE"/>
<path d="M24.675 58.4912C24.4425 58.2586 24.1212 58.125 23.7912 58.125C23.4625 58.125 23.14 58.2586 22.9075 58.4912C22.675 58.7239 22.5412 59.0462 22.5412 59.375C22.5412 59.7038 22.675 60.0263 22.9075 60.2586C23.14 60.4911 23.4625 60.625 23.7912 60.625C24.1212 60.625 24.4425 60.4913 24.675 60.2586C24.9087 60.0263 25.0412 59.7038 25.0412 59.375C25.0412 59.0462 24.9087 58.7237 24.675 58.4912Z" fill="#7854FE"/>
<path d="M44.0841 39.5027H35.8789C35.1885 39.5027 34.6289 40.0624 34.6289 40.7527C34.6289 41.4429 35.1885 42.0027 35.8789 42.0027H44.0841C44.7745 42.0027 45.3341 41.4429 45.3341 40.7527C45.3341 40.0624 44.7745 39.5027 44.0841 39.5027Z" fill="#7854FE"/>
<path d="M44.0841 50.5002C44.0841 50.5002 44.0839 50.5002 44.0838 50.5002L35.8785 50.5026C35.1881 50.5029 34.6286 51.0625 34.6289 51.753C34.6291 52.4432 35.1886 53.0026 35.8789 53.0026C35.8789 53.0026 35.8791 53.0026 35.8792 53.0026L44.0845 53.0002C44.7749 53 45.3344 52.4404 45.3341 51.7499C45.334 51.0596 44.7744 50.5002 44.0841 50.5002Z" fill="#7854FE"/>
<path d="M44.0841 45.0016H35.8789C35.1885 45.0016 34.6289 45.5613 34.6289 46.2516C34.6289 46.9418 35.1885 47.5016 35.8789 47.5016H44.0841C44.7745 47.5016 45.3341 46.9418 45.3341 46.2516C45.3341 45.5613 44.7745 45.0016 44.0841 45.0016Z" fill="#7854FE"/>
<path d="M29.875 39.5027H18.875C18.1846 39.5027 17.625 40.0624 17.625 40.7527V51.7527C17.625 52.4429 18.1846 53.0027 18.875 53.0027H29.875C30.5654 53.0027 31.125 52.4429 31.125 51.7527V40.7527C31.125 40.0624 30.5654 39.5027 29.875 39.5027ZM28.625 50.5027H20.125V42.0027H28.625V50.5027Z" fill="#7854FE"/>
<path d="M22 19.125C19.9323 19.125 18.25 20.8073 18.25 22.875C18.25 24.9427 19.9323 26.625 22 26.625C24.0677 26.625 25.75 24.9427 25.75 22.875C25.75 20.8073 24.0677 19.125 22 19.125ZM22 24.125C21.3108 24.125 20.75 23.5642 20.75 22.875C20.75 22.1858 21.3108 21.625 22 21.625C22.6892 21.625 23.25 22.1858 23.25 22.875C23.25 23.5642 22.6892 24.125 22 24.125Z" fill="#7854FE"/>
<path d="M32 19.125C29.9323 19.125 28.25 20.8073 28.25 22.875C28.25 24.9427 29.9323 26.625 32 26.625C34.0677 26.625 35.75 24.9427 35.75 22.875C35.75 20.8073 34.0677 19.125 32 19.125ZM32 24.125C31.3108 24.125 30.75 23.5642 30.75 22.875C30.75 22.1858 31.3108 21.625 32 21.625C32.6892 21.625 33.25 22.1858 33.25 22.875C33.25 23.5642 32.6892 24.125 32 24.125Z" fill="#7854FE"/>
<path d="M42 19.125C39.9323 19.125 38.25 20.8073 38.25 22.875C38.25 24.9427 39.9323 26.625 42 26.625C44.0677 26.625 45.75 24.9427 45.75 22.875C45.75 20.8073 44.0677 19.125 42 19.125ZM42 24.125C41.3108 24.125 40.75 23.5642 40.75 22.875C40.75 22.1858 41.3108 21.625 42 21.625C42.6892 21.625 43.25 22.1858 43.25 22.875C43.25 23.5642 42.6892 24.125 42 24.125Z" fill="#7854FE"/>
</mask>
<g mask="url(#mask0)">
<circle cx="32" cy="32" r="46" fill="url(#paint0_linear)"/>
</g>
<defs>
<linearGradient id="paint0_linear" x1="-14" y1="78" x2="78" y2="78" gradientUnits="userSpaceOnUse">
<stop stop-color="#D057AC"/>
<stop offset="1" stop-color="#7854FE"/>
</linearGradient>
</defs>
</svg>
