<svg width="64" height="64" viewBox="0 0 64 64" fill="none" xmlns="http://www.w3.org/2000/svg">
<mask id="mask0" mask-type="alpha" maskUnits="userSpaceOnUse" x="0" y="0" width="64" height="64">
<g clip-path="url(#clip0)">
<path d="M21.5988 56.1482C21.3663 55.9158 21.0438 55.7832 20.7151 55.7832C20.3863 55.7832 20.0638 55.9158 19.8315 56.1482C19.599 56.3807 19.4651 56.7032 19.4651 57.0332C19.4651 57.362 19.5988 57.6845 19.8315 57.917C20.0638 58.1495 20.3863 58.2832 20.7151 58.2832C21.0438 58.2832 21.3663 58.1496 21.5988 57.917C21.8313 57.6843 21.9651 57.362 21.9651 57.0332C21.9651 56.7031 21.8315 56.3806 21.5988 56.1482Z" fill="#7854FE"/>
<path d="M38.9909 15.1252C39.6811 15.1252 40.2409 14.5656 40.2409 13.8752V6.25037C40.2409 4.18262 38.5586 2.50037 36.4909 2.50037H3.75C1.68225 2.50037 0 4.18262 0 6.25037V57.7496C0 59.8174 1.68225 61.4996 3.75 61.4996H36.491C38.5588 61.4996 40.241 59.8174 40.241 57.7496V50.6247C40.241 49.9344 39.6813 49.3747 38.991 49.3747C38.3008 49.3747 37.741 49.9345 37.741 50.6247V52.2497H2.5V16.7502H8.36438C9.05463 16.7502 9.61438 16.1906 9.61438 15.5002C9.61438 14.8099 9.05463 14.2502 8.36438 14.2502H2.5V11.7502H37.741V13.8752C37.7409 14.5656 38.3006 15.1252 38.9909 15.1252ZM37.7409 54.7496V57.7496C37.7409 58.4389 37.18 58.9996 36.4909 58.9996H3.75C3.06075 58.9996 2.5 58.4389 2.5 57.7496V54.7496H37.7409ZM2.5 9.25024V6.25024C2.5 5.56099 3.06075 5.00024 3.75 5.00024H36.491C37.1803 5.00024 37.741 5.56099 37.741 6.25024V9.25024H2.5Z" fill="#7854FE"/>
<path d="M26.2326 45.491C26.0001 45.2585 25.6776 45.1248 25.3489 45.1248C25.0189 45.1248 24.6976 45.2584 24.4651 45.491C24.2328 45.7235 24.0989 46.046 24.0989 46.3748C24.0989 46.7035 24.2326 47.026 24.4651 47.2584C24.6976 47.4909 25.0201 47.6248 25.3489 47.6248C25.6776 47.6248 26.0001 47.491 26.2326 47.2584C26.465 47.026 26.5989 46.7035 26.5989 46.3748C26.5989 46.046 26.4651 45.7235 26.2326 45.491Z" fill="#7854FE"/>
<path d="M16.9652 45.491C16.7329 45.2585 16.4104 45.1248 16.0816 45.1248C15.7527 45.1248 15.4304 45.2584 15.1979 45.491C14.9654 45.7236 14.8316 46.0448 14.8316 46.3748C14.8316 46.7048 14.9652 47.026 15.1979 47.2584C15.4304 47.4909 15.7527 47.6248 16.0816 47.6248C16.4102 47.6248 16.7327 47.491 16.9652 47.2584C17.1977 47.026 17.3316 46.7035 17.3316 46.3748C17.3316 46.046 17.1979 45.7235 16.9652 45.491Z" fill="#7854FE"/>
<path d="M21.4751 45.491C21.2414 45.2585 20.9202 45.1248 20.5915 45.1248C20.2626 45.1248 19.9401 45.2584 19.7065 45.491C19.474 45.7235 19.3415 46.046 19.3415 46.3748C19.3415 46.7035 19.474 47.026 19.7065 47.2584C19.9401 47.4909 20.2626 47.6248 20.5915 47.6248C20.9201 47.6248 21.2426 47.491 21.4751 47.2584C21.7076 47.026 21.8415 46.7035 21.8415 46.3748C21.8415 46.046 21.7077 45.7235 21.4751 45.491Z" fill="#7854FE"/>
<path d="M62.75 47.4997H46.2502C45.6471 47.4997 45.1439 47.9269 45.0262 48.4952L33.8209 37.2898C33.3326 36.8018 32.5414 36.8018 32.053 37.2898C31.5649 37.778 31.5649 38.5695 32.053 39.0577L45 52.0047V62.7496C45 63.4398 45.5597 63.9996 46.25 63.9996H62.7497C63.44 63.9996 63.9997 63.4398 63.9997 62.7496V48.7497C64 48.0592 63.4402 47.4997 62.75 47.4997ZM61.5 61.4994H47.5002V51.4874C47.5002 51.4871 47.5002 51.4866 47.5002 51.4862V49.9997H61.5V61.4994Z" fill="#7854FE"/>
<path d="M58.0205 56.9969H50.9799C50.2896 56.9969 49.7299 57.5567 49.7299 58.2469C49.7299 58.9372 50.2895 59.4969 50.9799 59.4969H58.0205C58.7107 59.4969 59.2705 58.9372 59.2705 58.2469C59.2705 57.5567 58.7107 56.9969 58.0205 56.9969Z" fill="#7854FE"/>
<path d="M58.0205 51.9988H50.9799C50.2896 51.9988 49.7299 52.5585 49.7299 53.2488C49.7299 53.939 50.2895 54.4988 50.9799 54.4988H58.0205C58.7107 54.4988 59.2705 53.939 59.2705 53.2488C59.2705 52.5585 58.7107 51.9988 58.0205 51.9988Z" fill="#7854FE"/>
<path d="M62.75 23.7486H46.2502C45.56 23.7486 45.0002 24.3082 45.0002 24.9986V30.75H30.5432C29.923 25.5479 25.4869 21.5001 20.1204 21.5001C14.3309 21.5001 9.62048 26.2102 9.62048 32C9.62048 37.7895 14.3307 42.4999 20.1204 42.4999C25.4867 42.4999 29.923 38.4521 30.5432 33.25H45.0002V38.9984C45.0002 39.6886 45.56 40.2484 46.2502 40.2484H62.75C63.4402 40.2484 64 39.6886 64 38.9984V24.9985C64 24.3081 63.4402 23.7486 62.75 23.7486ZM20.1205 39.9999C15.7094 39.9999 12.1206 36.4111 12.1206 32C12.1206 27.5889 15.7092 24 20.1205 24C24.5316 24 28.1204 27.5887 28.1204 31.9999C28.1204 36.411 24.5316 39.9999 20.1205 39.9999ZM61.5 37.7484H47.5002V26.2485H61.5V37.7484Z" fill="#7854FE"/>
<path d="M58.0205 33.246H50.9799C50.2896 33.246 49.7299 33.8057 49.7299 34.496C49.7299 35.1862 50.2895 35.746 50.9799 35.746H58.0205C58.7107 35.746 59.2705 35.1862 59.2705 34.496C59.2705 33.8057 58.7107 33.246 58.0205 33.246Z" fill="#7854FE"/>
<path d="M58.0205 28.2478H50.9799C50.2896 28.2478 49.7299 28.8074 49.7299 29.4978C49.7299 30.1882 50.2895 30.7478 50.9799 30.7478H58.0205C58.7107 30.7478 59.2705 30.1882 59.2705 29.4978C59.2705 28.8074 58.7107 28.2478 58.0205 28.2478Z" fill="#7854FE"/>
<path d="M62.75 0.000488281H46.2502C45.56 0.000488281 45.0002 0.560113 45.0002 1.25049V11.9952L32.0532 24.9422C31.5651 25.4304 31.5651 26.2219 32.0532 26.7101C32.2974 26.9542 32.6172 27.0762 32.9371 27.0762C33.257 27.0762 33.5769 26.9542 33.821 26.7101L45.0264 15.5047C45.1439 16.073 45.6472 16.5002 46.2504 16.5002H62.75C63.4402 16.5002 64 15.9406 64 15.2502V1.25049C64 0.559988 63.4402 0.000488281 62.75 0.000488281ZM61.5 14.0002H47.5002V12.5136C47.5002 12.5132 47.5002 12.5127 47.5002 12.5124V2.50036H61.5V14.0002Z" fill="#7854FE"/>
<path d="M58.0205 9.49768H50.9799C50.2896 9.49768 49.7299 10.0573 49.7299 10.7477C49.7299 11.4381 50.2895 11.9977 50.9799 11.9977H58.0205C58.7107 11.9977 59.2705 11.4381 59.2705 10.7477C59.2705 10.0573 58.7107 9.49768 58.0205 9.49768Z" fill="#7854FE"/>
<path d="M58.0205 4.49963H50.9799C50.2896 4.49963 49.7299 5.05926 49.7299 5.74963C49.7299 6.44001 50.2895 6.99963 50.9799 6.99963H58.0205C58.7107 6.99963 59.2705 6.44001 59.2705 5.74963C59.2705 5.05926 58.7107 4.49963 58.0205 4.49963Z" fill="#7854FE"/>
<path d="M20.1205 27.75C17.777 27.75 15.8707 29.6565 15.8707 31.9999C15.8707 34.3432 17.7772 36.2497 20.1205 36.2497C22.464 36.2497 24.3704 34.3432 24.3704 31.9999C24.3704 29.6565 22.4639 27.75 20.1205 27.75ZM20.1205 33.7499C19.1555 33.7499 18.3705 32.9649 18.3705 31.9999C18.3705 31.0349 19.1555 30.2499 20.1205 30.2499C21.0855 30.2499 21.8705 31.0349 21.8705 31.9999C21.8705 32.9649 21.0854 33.7499 20.1205 33.7499Z" fill="#7854FE"/>
<path d="M14.4827 14.6165C14.2502 14.384 13.9289 14.2502 13.599 14.2502C13.2702 14.2502 12.9477 14.384 12.7152 14.6165C12.4829 14.849 12.349 15.1715 12.349 15.5002C12.349 15.829 12.4827 16.1515 12.7152 16.384C12.9477 16.6165 13.2702 16.7502 13.599 16.7502C13.929 16.7502 14.2502 16.6165 14.4827 16.384C14.7151 16.1515 14.849 15.829 14.849 15.5002C14.849 15.1715 14.7152 14.849 14.4827 14.6165Z" fill="#7854FE"/>
</g>
</mask>
<g mask="url(#mask0)">
<circle cx="34.5" cy="29.5" r="53.5" fill="url(#paint0_linear)"/>
</g>
<defs>
<linearGradient id="paint0_linear" x1="-19" y1="83" x2="88" y2="83" gradientUnits="userSpaceOnUse">
<stop stop-color="#D057AC"/>
<stop offset="1" stop-color="#7854FE"/>
</linearGradient>
<clipPath id="clip0">
<rect width="64" height="64" fill="white"/>
</clipPath>
</defs>
</svg>
