<svg width="64" height="64" viewBox="0 0 64 64" fill="none" xmlns="http://www.w3.org/2000/svg">
<mask id="mask0" mask-type="alpha" maskUnits="userSpaceOnUse" x="0" y="0" width="64" height="64">
<g clip-path="url(#clip0)">
<path d="M61.3499 14.4177C61.3539 14.3309 61.356 14.2441 61.356 14.1574C61.356 11.1609 59.0121 8.70145 56.0607 8.51382C54.1014 4.20407 49.7507 1.36682 44.9655 1.36682C39.5529 1.36682 34.7916 4.98182 33.2809 10.0952C29.4891 10.4112 26.5 13.5967 26.5 17.4667C26.5 18.1569 27.0598 18.7167 27.75 18.7167C28.4402 18.7167 29 18.1569 29 17.4667C29 14.7662 31.1987 12.5693 33.9012 12.5693C33.9854 12.5693 34.079 12.5723 34.1871 12.5786C34.8078 12.6177 35.3583 12.1906 35.4834 11.5828C36.4046 7.1117 40.3924 3.8667 44.9654 3.8667C49.0087 3.8667 52.6619 6.41557 54.0559 10.2089C54.2535 10.7468 54.7916 11.0797 55.3611 11.0208C55.4778 11.0083 55.591 11.0022 55.6979 11.0022C57.4393 11.0022 58.8559 12.4176 58.8559 14.1573C58.8559 14.3884 58.8296 14.6222 58.778 14.8522C58.644 15.4488 58.9613 16.0548 59.5279 16.2847C60.7259 16.7704 61.4999 17.9182 61.4999 19.2089C61.4999 20.9487 60.0832 22.3641 58.3419 22.3641H45.25C44.5597 22.3641 44 22.9238 44 23.6141C44 24.3043 44.5597 24.8641 45.25 24.8641H58.342C61.4618 24.8641 64 22.3272 64 19.2089C64 17.2302 62.9859 15.4391 61.3499 14.4177Z" fill="#7854FE"/>
<path d="M52.4076 14.1023C52.1751 13.87 51.8538 13.7361 51.5238 13.7361C51.1951 13.7361 50.8726 13.8698 50.6402 14.1023C50.4077 14.3348 50.2738 14.6573 50.2738 14.9861C50.2738 15.3161 50.4076 15.6373 50.6402 15.8698C50.8726 16.1022 51.1951 16.2361 51.5238 16.2361C51.8526 16.2361 52.1749 16.1022 52.4076 15.8698C52.6413 15.6373 52.7738 15.316 52.7738 14.9861C52.7738 14.6573 52.6413 14.335 52.4076 14.1023Z" fill="#7854FE"/>
<path d="M46.1324 14.1025C45.8987 13.8701 45.5775 13.7362 45.2488 13.7362C44.9187 13.7362 44.5975 13.87 44.3638 14.1025C44.1313 14.335 43.9988 14.6575 43.9988 14.9862C43.9988 15.3162 44.1313 15.6375 44.3638 15.87C44.5975 16.1023 44.9199 16.2362 45.2488 16.2362C45.5775 16.2362 45.8987 16.1025 46.1324 15.87C46.3649 15.6375 46.4974 15.3161 46.4974 14.9862C46.4974 14.6575 46.3649 14.335 46.1324 14.1025Z" fill="#7854FE"/>
<path d="M39.8563 14.1023C39.6239 13.87 39.3014 13.7361 38.9727 13.7361C38.6438 13.7361 38.3213 13.8698 38.0877 14.1023C37.8552 14.3348 37.7227 14.6573 37.7227 14.9861C37.7227 15.3161 37.8552 15.6373 38.0877 15.8698C38.3213 16.1022 38.6438 16.2361 38.9727 16.2361C39.3013 16.2361 39.6238 16.1022 39.8563 15.8698C40.0888 15.6373 40.2227 15.3148 40.2227 14.9861C40.2227 14.6573 40.0889 14.335 39.8563 14.1023Z" fill="#7854FE"/>
<path d="M42.3214 42.1617L37.9403 40.71V40.2861C40.4401 38.4525 42.0672 35.4957 42.0672 32.165V21.0474C42.0672 20.3571 41.5075 19.7974 40.8172 19.7974H29.1771C25.1824 19.7974 21.9324 23.0472 21.9324 27.042V32.165C21.9324 35.4957 23.5594 38.4525 26.0593 40.286V40.7099L21.6781 42.1616C16.7009 43.8109 13.3568 48.4421 13.3568 53.6856V61.383C13.3568 62.0732 13.9165 62.633 14.6068 62.633H49.393C50.0833 62.633 50.643 62.0732 50.643 61.383V53.6856C50.643 48.4422 47.2989 43.811 42.3214 42.1617ZM24.4325 27.0419C24.4324 24.4257 26.5609 22.2974 29.1771 22.2974H39.5672V28.6057C38.6769 28.9782 37.7134 29.1761 36.7414 29.1761C34.4599 29.1761 32.3494 28.1376 30.9514 26.327C30.7146 26.0205 30.3494 25.8409 29.962 25.8409C29.5748 25.8409 29.2094 26.0205 28.9726 26.3269C27.8341 27.8014 26.2233 28.7634 24.4325 29.07V27.0419ZM24.4324 32.165V31.5951C26.5196 31.3315 28.446 30.4132 29.9619 28.9576C31.7763 30.7 34.178 31.6761 36.7412 31.6761C37.7002 31.6761 38.6539 31.5335 39.5671 31.2596V32.165C39.5671 36.3377 36.1724 39.7324 31.9996 39.7324C27.8269 39.7324 24.4324 36.3377 24.4324 32.165ZM35.35 41.6571V43.4526C35.35 45.2997 33.8472 46.8026 32 46.8026C30.1528 46.8026 28.65 45.2999 28.65 43.4526V41.6572C29.6986 42.0284 30.8256 42.2325 31.9998 42.2325C33.1741 42.2325 34.3012 42.0284 35.35 41.6571ZM44.75 60.1331V53.2714C44.75 52.5811 44.1903 52.0214 43.5 52.0214C42.8097 52.0214 42.25 52.5811 42.25 53.2714V60.1331H21.75V53.2714C21.75 52.5811 21.1903 52.0214 20.5 52.0214C19.8098 52.0214 19.25 52.5811 19.25 53.2714V60.1331H15.8568V53.6857C15.8568 49.5219 18.5123 45.8445 22.4645 44.5347L26.15 43.3134V43.4524C26.15 46.6781 28.7743 49.3024 32 49.3024C35.2257 49.3024 37.85 46.6781 37.85 43.4524V43.3135L41.535 44.5346C45.4874 45.8444 48.1429 49.5217 48.1429 53.6856V60.1331H44.75Z" fill="#7854FE"/>
<path d="M26.7541 9.25062C26.1696 9.01899 25.5694 8.81799 24.9606 8.64974V6.63837C24.9606 5.94824 24.4012 5.38862 23.7111 5.38837L16.8035 5.38574C16.8032 5.38574 16.8031 5.38574 16.803 5.38574C16.4716 5.38574 16.1538 5.51737 15.9194 5.75174C15.6848 5.98612 15.553 6.30424 15.553 6.63574V8.64899C14.1615 9.03274 12.8301 9.58387 11.576 10.2956L10.1485 8.86799C9.66038 8.38012 8.86938 8.38012 8.38113 8.86749L3.494 13.7492C3.25937 13.9836 3.1275 14.3016 3.12737 14.6332C3.12725 14.9649 3.259 15.283 3.4935 15.5175L4.92375 16.9477C4.21212 18.2019 3.66087 19.5332 3.27712 20.9249H1.25263C0.5625 20.9249 0.00287509 21.4842 0.00262509 22.1744L8.895e-08 29.0819C-0.000124911 29.4135 0.1315 29.7315 0.366 29.966C0.600375 30.2006 0.9185 30.3324 1.25 30.3324H3.27725C3.661 31.7239 4.21225 33.0555 4.92387 34.3096L3.488 35.7455C2.99987 36.2336 2.99987 37.0251 3.488 37.5134L8.37237 42.3977C8.60675 42.6322 8.92463 42.7639 9.25625 42.7639C9.58775 42.7639 9.90575 42.6321 10.1401 42.3977L11.576 40.9617C13.1239 41.8401 14.7895 42.4741 16.5406 42.8504C16.6291 42.8692 16.7174 42.8785 16.8044 42.8785C17.3809 42.8785 17.8993 42.4772 18.0252 41.8909C18.1704 41.216 17.7407 40.5511 17.0658 40.4061C15.2789 40.0222 13.5959 39.3254 12.0635 38.3351C11.5688 38.0152 10.9176 38.0844 10.5011 38.501L9.25613 39.7461L6.1395 36.6295L7.3845 35.3845C7.80113 34.9679 7.87025 34.317 7.55037 33.8221C6.56012 32.2896 5.86325 30.6066 5.4795 28.8197C5.35575 28.2437 4.8465 27.8324 4.25737 27.8324H2.5005L2.50213 23.4249H4.2575C4.84663 23.4249 5.35575 23.0135 5.4795 22.4376C5.86362 20.6505 6.56037 18.9675 7.55062 17.4352C7.8705 16.9405 7.80137 16.2895 7.38475 15.8729L6.14587 14.634L9.26412 11.5191L10.5013 12.7564C10.9181 13.173 11.5689 13.2421 12.0636 12.9222C13.596 11.932 15.2789 11.2352 17.0658 10.8512C17.6418 10.7276 18.0531 10.2184 18.0531 9.62924V7.88637L22.4608 7.88799V9.62949C22.4608 10.2186 22.8721 10.7277 23.448 10.8515C24.2601 11.0261 25.0626 11.2695 25.833 11.5749C26.4746 11.8289 27.2014 11.5151 27.4556 10.8734C27.7099 10.2315 27.3959 9.50499 26.7541 9.25062Z" fill="#7854FE"/>
<path d="M20.25 32.4092C16.515 32.4092 13.4765 29.3706 13.4765 25.6357C13.4765 23.1853 14.8061 20.9188 16.9468 19.7205C17.5491 19.3832 17.7641 18.6216 17.4269 18.0192C17.0896 17.4168 16.3275 17.202 15.7256 17.5391C12.7961 19.1791 10.9765 22.2815 10.9765 25.6357C10.9765 30.7491 15.1366 34.9092 20.25 34.9092C20.9403 34.9092 21.5 34.3495 21.5 33.6592C21.5 32.969 20.9403 32.4092 20.25 32.4092Z" fill="#7854FE"/>
<path d="M20.2383 16.3622C19.5479 16.3622 18.9883 16.9219 18.9883 17.6122C18.9883 18.3024 19.548 18.8622 20.2383 18.8622H20.25C20.9403 18.8622 21.4942 18.3024 21.4942 17.6122C21.4942 16.9219 20.9287 16.3622 20.2383 16.3622Z" fill="#7854FE"/>
<path d="M57.25 33.6591C56.5598 33.6591 56 34.2188 56 34.9091V53.3857H53.4584C52.7681 53.3857 52.2084 53.9454 52.2084 54.6357C52.2084 55.3259 52.7681 55.8857 53.4584 55.8857H57.25C57.9402 55.8857 58.5 55.3259 58.5 54.6357V34.9091C58.5 34.2188 57.9402 33.6591 57.25 33.6591Z" fill="#7854FE"/>
<path d="M58.1336 29.0574C57.9013 28.8249 57.5788 28.6924 57.25 28.6924C56.9212 28.6924 56.5987 28.8249 56.3662 29.0574C56.1337 29.2898 56 29.6123 56 29.9424C56 30.2711 56.1336 30.5923 56.3662 30.826C56.5987 31.0585 56.9212 31.1924 57.25 31.1924C57.5788 31.1924 57.9013 31.0586 58.1336 30.826C58.3661 30.5923 58.5 30.2711 58.5 29.9424C58.5 29.6123 58.3663 29.2898 58.1336 29.0574Z" fill="#7854FE"/>
<path d="M10.375 53.3858H7.97913V44.8325C7.97913 44.1423 7.41938 43.5825 6.72913 43.5825C6.03888 43.5825 5.47913 44.1423 5.47913 44.8325V54.6358C5.47913 55.326 6.03888 55.8858 6.72913 55.8858H10.375C11.0653 55.8858 11.625 55.326 11.625 54.6358C11.625 53.9455 11.0653 53.3858 10.375 53.3858Z" fill="#7854FE"/>
</g>
</mask>
<g mask="url(#mask0)">
<circle cx="28" cy="30" r="46" fill="url(#paint0_linear)"/>
</g>
<defs>
<linearGradient id="paint0_linear" x1="-18" y1="76" x2="74" y2="76" gradientUnits="userSpaceOnUse">
<stop stop-color="#D057AC"/>
<stop offset="1" stop-color="#7854FE"/>
</linearGradient>
<clipPath id="clip0">
<rect width="64" height="64" fill="white"/>
</clipPath>
</defs>
</svg>
