<svg width="64" height="64" viewBox="0 0 64 64" fill="none" xmlns="http://www.w3.org/2000/svg">
<mask id="mask0" mask-type="alpha" maskUnits="userSpaceOnUse" x="0" y="0" width="64" height="64">
<g clip-path="url(#clip0)">
<path d="M46.6749 7.11625C46.4425 6.88375 46.12 6.75 45.7912 6.75C45.4611 6.75 45.14 6.88375 44.9075 7.11625C44.6737 7.34875 44.5412 7.67125 44.5412 8C44.5412 8.32875 44.6737 8.65125 44.9075 8.88375C45.14 9.11625 45.4611 9.25 45.7912 9.25C46.12 9.25 46.4425 9.11625 46.6749 8.88375C46.9074 8.65125 47.0412 8.32875 47.0412 8C47.0412 7.67125 46.9075 7.34875 46.6749 7.11625Z" fill="#7854FE"/>
<path d="M43.5461 12.75H35.5461C34.8559 12.75 34.2961 13.3096 34.2961 14V22C34.2961 22.6904 34.8559 23.25 35.5461 23.25H43.5461C44.2364 23.25 44.7961 22.6904 44.7961 22V14C44.7961 13.3096 44.2364 12.75 43.5461 12.75ZM42.2961 20.75H36.7961V15.25H42.2961V20.75Z" fill="#7854FE"/>
<path d="M43.5461 26.75H35.5461C34.8559 26.75 34.2961 27.3096 34.2961 28V36C34.2961 36.6904 34.8559 37.25 35.5461 37.25H43.5461C44.2365 37.25 44.7961 36.6904 44.7961 36V28C44.7961 27.3096 44.2364 26.75 43.5461 26.75ZM42.2961 34.75H36.7961V29.25H42.2961V34.75Z" fill="#7854FE"/>
<path d="M39.5461 40.75H35.5461C34.8559 40.75 34.2961 41.3096 34.2961 42V50C34.2961 50.6904 34.8559 51.25 35.5461 51.25C36.2364 51.25 36.7961 50.6904 36.7961 50V43.25H39.5461C40.2364 43.25 40.7961 42.6904 40.7961 42C40.7961 41.3096 40.2364 40.75 39.5461 40.75Z" fill="#7854FE"/>
<path d="M29.5416 12.75C28.8514 12.75 28.2916 13.3096 28.2916 14V20.75H21.5416C20.8514 20.75 20.2916 21.3096 20.2916 22C20.2916 22.6904 20.8514 23.25 21.5416 23.25H29.5416C30.2319 23.25 30.7916 22.6904 30.7916 22V14C30.7916 13.3096 30.2319 12.75 29.5416 12.75Z" fill="#7854FE"/>
<path d="M29.5416 26.75H21.5416C20.8514 26.75 20.2916 27.3096 20.2916 28V36C20.2916 36.6904 20.8514 37.25 21.5416 37.25H29.5416C30.2319 37.25 30.7916 36.6904 30.7916 36V28C30.7916 27.3096 30.2319 26.75 29.5416 26.75ZM28.2916 34.75H22.7916V29.25H28.2916V34.75Z" fill="#7854FE"/>
<path d="M29.5416 40.75H21.5416C20.8514 40.75 20.2916 41.3096 20.2916 42V50C20.2916 50.6904 20.8514 51.25 21.5416 51.25H29.5416C30.2319 51.25 30.7916 50.6904 30.7916 50V42C30.7916 41.3096 30.2319 40.75 29.5416 40.75ZM28.2916 48.75H22.7916V43.25H28.2916V48.75Z" fill="#7854FE"/>
<path d="M32.8499 58.6499C32.6174 58.4162 32.2949 58.2837 31.9661 58.2837C31.6374 58.2837 31.315 58.4162 31.0825 58.6499C30.85 58.8824 30.7161 59.2037 30.7161 59.5337C30.7161 59.8624 30.8499 60.1837 31.0825 60.4174C31.3149 60.6499 31.6374 60.7837 31.9661 60.7837C32.2949 60.7837 32.6174 60.6499 32.8499 60.4174C33.0824 60.1837 33.2161 59.8624 33.2161 59.5337C33.2161 59.2037 33.0825 58.8824 32.8499 58.6499Z" fill="#7854FE"/>
<path d="M48.9992 0H15.0007C12.933 0 11.2507 1.68225 11.2507 3.75V4.24837H3.75C1.68225 4.24837 0 5.93062 0 7.99837V19.4984C0 21.5661 1.68225 23.2484 3.75 23.2484H15.25C17.3177 23.2484 19 21.5661 19 19.4984V9.25H40C40.6903 9.25 41.25 8.69038 41.25 8C41.25 7.30963 40.6903 6.75 40 6.75H18.7855C18.27 5.29425 16.8801 4.24837 15.25 4.24837H13.7507V3.75C13.7507 3.06075 14.3115 2.5 15.0007 2.5H48.9992C49.6885 2.5 50.2492 3.06075 50.2492 3.75V32C50.2492 32.6904 50.809 33.25 51.4992 33.25C52.1895 33.25 52.7492 32.6904 52.7492 32V3.75C52.7492 1.68225 51.067 0 48.9992 0ZM16.5 19.4984C16.5 20.1876 15.9392 20.7484 15.25 20.7484H3.75C3.06075 20.7484 2.5 20.1876 2.5 19.4984V19.0443C2.56938 18.9985 2.63525 18.945 2.69637 18.8839L6.65625 14.924L9.42863 17.6964C9.91687 18.1845 10.7081 18.1845 11.1965 17.6964L16.5 12.3929V19.4984ZM15.25 6.74837C15.9392 6.74837 16.5 7.30912 16.5 7.99837V8.85725L10.3125 15.0448L7.54012 12.2724C7.05188 11.7843 6.26063 11.7843 5.77225 12.2724L2.5 15.5446V7.99837C2.5 7.30912 3.06075 6.74837 3.75 6.74837H15.25Z" fill="#7854FE"/>
<path d="M60.25 36.25H46.75C44.6823 36.25 43 37.9323 43 40V53.5C43 55.5677 44.6823 57.25 46.75 57.25H50.2493V60.25C50.2493 60.9393 49.6885 61.5 48.9993 61.5H15.0007C14.3115 61.5 13.7507 60.9393 13.7507 60.25V57.25H40.1686C40.8589 57.25 41.4186 56.6904 41.4186 56C41.4186 55.3096 40.8589 54.75 40.1686 54.75H13.7507V28C13.7507 27.3096 13.191 26.75 12.5007 26.75C11.8105 26.75 11.2507 27.3096 11.2507 28V60.25C11.2507 62.3177 12.933 64 15.0007 64H48.9993C51.067 64 52.7493 62.3177 52.7493 60.25V57.25H60.25C62.3178 57.25 64 55.5677 64 53.5V40C64 37.9323 62.3178 36.25 60.25 36.25ZM61.5 53.5C61.5 54.1893 60.9393 54.75 60.25 54.75H46.75C46.0608 54.75 45.5 54.1893 45.5 53.5V40C45.5 39.3108 46.0608 38.75 46.75 38.75H60.25C60.9393 38.75 61.5 39.3108 61.5 40V53.5Z" fill="#7854FE"/>
<path d="M57.2579 12.75C56.5676 12.75 56.0079 13.3096 56.0079 14V23.9559C56.0079 24.6463 56.5675 25.2059 57.2579 25.2059C57.9481 25.2059 58.5079 24.6463 58.5079 23.9559V14C58.5079 13.3096 57.9481 12.75 57.2579 12.75Z" fill="#7854FE"/>
<path d="M58.1413 27.83C57.9088 27.5975 57.5863 27.4637 57.2575 27.4637C56.9288 27.4637 56.6063 27.5975 56.3739 27.83C56.1414 28.0625 56.0075 28.385 56.0075 28.7137C56.0075 29.0425 56.1413 29.365 56.3739 29.5975C56.6063 29.83 56.9288 29.9637 57.2575 29.9637C57.5863 29.9637 57.9088 29.83 58.1413 29.5975C58.375 29.365 58.5075 29.0425 58.5075 28.7137C58.5075 28.385 58.375 28.0625 58.1413 27.83Z" fill="#7854FE"/>
<path d="M6.75 28.8728C6.05975 28.8728 5.5 29.4324 5.5 30.1228V38.7311C5.5 39.4214 6.05975 39.9811 6.75 39.9811C7.44025 39.9811 8 39.4214 8 38.7311V30.1228C8 29.4324 7.44025 28.8728 6.75 28.8728Z" fill="#7854FE"/>
<path d="M57.3976 44.3966L53.0096 41.8656C52.1586 41.3749 51.1429 41.3752 50.2925 41.8665C49.442 42.3579 48.9342 43.2375 48.9342 44.2197V49.28C48.9342 50.262 49.442 51.1417 50.2923 51.6331C50.7179 51.879 51.1849 52.002 51.6519 52.002C52.118 52.002 52.5841 51.8795 53.009 51.6345L57.397 49.1051C58.2487 48.6141 58.7574 47.734 58.7575 46.7509C58.7576 45.7679 58.2491 44.8877 57.3976 44.3966ZM56.1485 46.9394L51.7605 49.4687C51.6884 49.5102 51.6151 49.5101 51.543 49.4686C51.4709 49.4269 51.4342 49.3635 51.4342 49.2801V44.2199C51.4342 44.1365 51.4709 44.0731 51.543 44.0314C51.5791 44.0105 51.6155 44.0001 51.6519 44.0001C51.6882 44.0001 51.7245 44.0105 51.7606 44.0314L56.1486 46.5624C56.2209 46.604 56.2575 46.6675 56.2575 46.7509C56.2575 46.8341 56.2209 46.8976 56.1485 46.9394Z" fill="#7854FE"/>
</g>
</mask>
<g mask="url(#mask0)">
<circle cx="32" cy="31" r="46" fill="url(#paint0_linear)"/>
</g>
<defs>
<linearGradient id="paint0_linear" x1="-14" y1="77" x2="78" y2="77" gradientUnits="userSpaceOnUse">
<stop stop-color="#D057AC"/>
<stop offset="1" stop-color="#7854FE"/>
</linearGradient>
<clipPath id="clip0">
<rect width="64" height="64" fill="white"/>
</clipPath>
</defs>
</svg>
