<svg width="18" height="18" viewBox="0 0 18 18" fill="none" xmlns="http://www.w3.org/2000/svg">
<path d="M18 14.2159C18 14.446 17.9574 14.7464 17.8722 15.1172C17.7869 15.4879 17.6974 15.7798 17.6037 15.9929C17.4247 16.419 16.9048 16.8707 16.044 17.348C15.2429 17.7827 14.4503 18 13.6662 18C13.4361 18 13.2124 17.9851 12.995 17.9553C12.7777 17.9254 12.5327 17.8722 12.2599 17.7955C11.9872 17.7188 11.7848 17.657 11.6527 17.6101C11.5206 17.5632 11.2841 17.4759 10.9432 17.348C10.6023 17.2202 10.3935 17.1435 10.3168 17.1179C9.48153 16.8196 8.7358 16.4659 8.07955 16.0568C6.98864 15.3835 5.86151 14.4652 4.69815 13.3018C3.5348 12.1385 2.61648 11.0114 1.94318 9.92045C1.53409 9.2642 1.1804 8.51847 0.882102 7.68324C0.856534 7.60653 0.77983 7.39773 0.651989 7.05682C0.524148 6.71591 0.43679 6.4794 0.389915 6.3473C0.34304 6.2152 0.28125 6.01278 0.204545 5.74006C0.127841 5.46733 0.0745739 5.2223 0.0447443 5.00497C0.0149148 4.78764 0 4.56392 0 4.33381C0 3.54972 0.21733 2.7571 0.651989 1.95597C1.12926 1.09517 1.58097 0.575284 2.0071 0.396307C2.22017 0.302557 2.51207 0.213068 2.88281 0.127841C3.25355 0.0426136 3.55398 0 3.78409 0C3.90341 0 3.9929 0.0127841 4.05256 0.0383523C4.20597 0.0894886 4.43182 0.413352 4.73011 1.00994C4.82386 1.17188 4.9517 1.40199 5.11364 1.70028C5.27557 1.99858 5.42472 2.26918 5.56108 2.51207C5.69744 2.75497 5.82955 2.98295 5.95739 3.19602C5.98295 3.23011 6.05753 3.33665 6.18111 3.51562C6.30469 3.6946 6.39631 3.84588 6.45597 3.96946C6.51562 4.09304 6.54545 4.21449 6.54545 4.33381C6.54545 4.50426 6.42401 4.71733 6.18111 4.97301C5.93821 5.22869 5.67401 5.46307 5.38849 5.67614C5.10298 5.8892 4.83878 6.11506 4.59588 6.35369C4.35298 6.59233 4.23153 6.78835 4.23153 6.94176C4.23153 7.01847 4.25284 7.11435 4.29545 7.2294C4.33807 7.34446 4.37429 7.43182 4.40412 7.49148C4.43395 7.55114 4.49361 7.65341 4.5831 7.7983C4.67259 7.94318 4.72159 8.02415 4.73011 8.04119C5.37784 9.20881 6.11932 10.2102 6.95455 11.0455C7.78977 11.8807 8.79119 12.6222 9.95881 13.2699C9.97585 13.2784 10.0568 13.3274 10.2017 13.4169C10.3466 13.5064 10.4489 13.5661 10.5085 13.5959C10.5682 13.6257 10.6555 13.6619 10.7706 13.7045C10.8857 13.7472 10.9815 13.7685 11.0582 13.7685C11.2116 13.7685 11.4077 13.647 11.6463 13.4041C11.8849 13.1612 12.1108 12.897 12.3239 12.6115C12.5369 12.326 12.7713 12.0618 13.027 11.8189C13.2827 11.576 13.4957 11.4545 13.6662 11.4545C13.7855 11.4545 13.907 11.4844 14.0305 11.544C14.1541 11.6037 14.3054 11.6953 14.4844 11.8189C14.6634 11.9425 14.7699 12.017 14.804 12.0426C15.017 12.1705 15.245 12.3026 15.4879 12.4389C15.7308 12.5753 16.0014 12.7244 16.2997 12.8864C16.598 13.0483 16.8281 13.1761 16.9901 13.2699C17.5866 13.5682 17.9105 13.794 17.9616 13.9474C17.9872 14.0071 18 14.0966 18 14.2159Z" fill="#7854FE"/>
</svg>
