<svg width="25" height="24" viewBox="0 0 25 24" fill="none" xmlns="http://www.w3.org/2000/svg">
<path fill-rule="evenodd" clip-rule="evenodd" d="M6.20208 13.5532L0.441574 11.2382C-0.14351 11.0021 -0.148593 10.1127 0.434824 9.87044L24.0761 0.0502904C24.5773 -0.158422 25.0944 0.314366 24.9853 0.881101L20.7427 22.8552C20.6427 23.374 20.0778 23.6093 19.679 23.2972L13.8875 18.7697C13.5358 18.4948 13.0563 18.5095 12.7198 18.8048L9.50875 21.6234C9.136 21.9515 8.57442 21.7687 8.43175 21.2742L6.20208 13.5532ZM20.3307 4.85455L9.07251 12.3207C8.64101 12.6075 8.43785 13.1686 8.57726 13.6939L9.79451 18.2993C9.88093 18.6256 10.3208 18.5921 10.3628 18.2549L10.6793 15.7294C10.7389 15.2539 10.9496 14.8158 11.2762 14.4885L20.5674 5.18888C20.7412 5.01534 20.533 4.72076 20.3307 4.85455Z" fill="#7854FE"/>
</svg>
