<svg width="25" height="23" viewBox="0 0 25 23" fill="none" xmlns="http://www.w3.org/2000/svg">
<path d="M25 2.61098C24.0807 3.05435 23.092 3.35353 22.054 3.48775C23.1133 2.79903 23.9263 1.70781 24.3094 0.406788C23.3183 1.04521 22.221 1.50875 21.0524 1.75867C20.117 0.676382 18.7839 0 17.3088 0C14.4763 0 12.1798 2.4934 12.1798 5.56874C12.1798 6.00512 12.2251 6.42992 12.3126 6.83748C8.04979 6.60558 4.27018 4.38877 1.7405 1.01937C1.29915 1.84154 1.04617 2.79798 1.04617 3.81894C1.04617 5.75084 1.95161 7.45518 3.32785 8.45411C2.48731 8.4248 1.6961 8.1746 1.00476 7.75729C1.0043 7.78043 1.0043 7.80384 1.0043 7.82781C1.0043 10.5254 2.77231 12.7761 5.11889 13.2881C4.68845 13.4151 4.23527 13.4834 3.76742 13.4834C3.4366 13.4834 3.11547 13.4487 2.80225 13.3833C3.45522 15.5956 5.34934 17.2057 7.59336 17.2507C5.83799 18.7444 3.62665 19.6346 1.22333 19.6346C0.809531 19.6346 0.401416 19.6079 0 19.5568C2.27026 21.1371 4.96599 22.0588 7.86243 22.0588C17.2969 22.0588 22.4554 13.5733 22.4554 6.21438C22.4554 5.97333 22.451 5.73255 22.4411 5.49392C23.4429 4.70889 24.3129 3.72803 25 2.61098Z" fill="#7854FE"/>
</svg>
