<svg width="14" height="18" viewBox="0 0 14 18" fill="none" xmlns="http://www.w3.org/2000/svg">
<path d="M6.7504 9.27843C5.06677 9.27843 3.70047 7.98259 3.70047 6.38398C3.70047 4.78386 5.06677 3.48878 6.7504 3.48878C8.43402 3.48878 9.80032 4.78461 9.80032 6.38398C9.80032 7.98185 8.43402 9.27843 6.7504 9.27843ZM6.7504 0C3.02209 0 7.58445e-08 2.86822 7.58445e-08 6.40721C7.58445e-08 9.74984 3.05708 14.0615 5.09859 16.1608C5.86127 16.944 6.7496 18 6.7496 18C6.7496 18 7.70395 16.938 8.5223 16.1316C10.5622 14.12 13.5 10.0811 13.5 6.40721C13.5 2.86822 10.4779 0 6.7504 0Z" fill="#7854FE"/>
</svg>
